<svg aria-hidden="true" style="position:absolute;width:0;height:0" xmlns="http://www.w3.org/2000/svg" overflow="hidden"><defs><symbol id="icon-facebook" viewBox="0 0 16 32"><path d="M11.053.182V3.95s-2.777-.277-3.472.787c-.38.582-.154 2.286-.188 3.509h3.684c-.311 1.43-.534 2.399-.763 3.637h-2.94V23.59H2.27V11.929H.099V8.246h2.148c.11-2.694.151-5.361 1.489-6.72C5.239-.002 6.674.182 11.055.182z"/></symbol><symbol id="icon-instagram" viewBox="0 0 32 32"><path d="M20.882 23.734H3.219a2.945 2.945 0 0 1-2.944-2.945V3.127A2.945 2.945 0 0 1 3.219.182h17.663a2.945 2.945 0 0 1 2.944 2.945v17.662a2.945 2.945 0 0 1-2.944 2.945zM12.051 7.395a4.56 4.56 0 0 0-4.138 2.649h-.005l-.02.051a5.33 5.33 0 0 0-.118.295c-.017.049-.037.096-.052.143a3.715 3.715 0 0 0-.087.313c-.013.049-.028.098-.039.147-.024.111-.04.224-.056.339-.006.046-.016.091-.021.138a4.562 4.562 0 0 0 4.536 5.05 4.562 4.562 0 0 0 4.536-5.05c-.006-.047-.015-.092-.021-.138a4.79 4.79 0 0 0-.056-.339c-.011-.05-.026-.098-.039-.147a4.135 4.135 0 0 0-.087-.313c-.016-.048-.035-.095-.052-.143a5.035 5.035 0 0 0-.118-.295l-.02-.051h-.005a4.56 4.56 0 0 0-4.138-2.649zm9.126-3.385c0-.65-.527-1.177-1.177-1.177h-2.355c-.65 0-1.177.526-1.177 1.177v2.356c0 .65.527 1.178 1.177 1.178H20c.65 0 1.177-.527 1.177-1.178V4.01zm0 6.035h-2.171a7.211 7.211 0 0 1-6.954 9.125 7.211 7.211 0 0 1-6.954-9.125H2.927v9.862c0 .651.527 1.178 1.177 1.178H20c.65 0 1.177-.527 1.177-1.178v-9.862z"/></symbol><symbol id="icon-pinterest" viewBox="0 0 26 32"><path d="M8.275 15.409c-.191.762-.384 1.56-.583 2.341-.197.77-.37 1.551-.656 2.258-.474 1.171-1.077 2.303-1.868 3.219-.526.61-.414.367-.572.334-.121-.026-.131-.144-.154-.315-.129-.931-.041-2.007.006-3.053.055-1.192.305-2.183.538-3.174.442-1.887.865-3.737 1.312-5.636.029-.126.11-.335.082-.407a5.823 5.823 0 0 1-.392-1.555 4.934 4.934 0 0 1 .127-1.776c.253-.967.835-1.824 1.732-2.138.57-.197 1.202-.108 1.586.121.395.237.666.61.793 1.139.135.562.036 1.235-.073 1.729-.244 1.114-.565 1.951-.857 3.026-.144.533-.308 1.081-.173 1.657.124.528.4.892.774 1.166.389.283.85.438 1.486.416 1.123-.039 1.903-.757 2.424-1.434.835-1.083 1.339-2.545 1.531-4.284.061-.561.107-1.206.064-1.841-.08-1.174-.447-2.118-1.03-2.85-.554-.698-1.34-1.252-2.297-1.564-.948-.309-2.26-.412-3.426-.213-2.119.363-3.613 1.567-4.494 3.23a6.473 6.473 0 0 0-.765 3.118c0 .961.237 1.705.62 2.286.122.184.3.336.419.546.169.298-.026.742-.109 1.064-.101.389-.112.925-.565.934-.188.004-.424-.133-.583-.222-1.193-.659-1.917-1.859-2.214-3.414a8.157 8.157 0 0 1 0-2.96 8.443 8.443 0 0 1 4.02-5.618C5.998.936 7.149.512 8.55.308c.464-.068.945-.096 1.467-.121a8.816 8.816 0 0 1 3.955.741 8.086 8.086 0 0 1 2.725 1.962c.766.837 1.324 1.809 1.677 3.025.185.633.364 1.309.364 2.091 0 .784-.166 1.475-.282 2.165-.433 2.586-1.663 4.7-3.509 5.904-.447.291-.988.56-1.604.74-.61.177-1.306.311-2.051.259a4.182 4.182 0 0 1-1.813-.528c-.494-.279-.909-.621-1.203-1.137z"/></symbol><symbol id="icon-twitter" viewBox="0 0 37 32"><path d="M18.681.641c2.17-.038 3.325.752 4.428 1.757.937-.08 2.154-.603 2.87-.967l.697-.381c-.41 1.106-.964 1.972-1.818 2.63-.19.145-.378.342-.615.435v.014c1.216-.012 2.219-.561 3.171-.859v.014c-.5.795-1.178 1.602-1.9 2.18l-.875.694c.016 1.287-.019 2.516-.259 3.598-1.399 6.288-5.107 10.557-10.975 12.386-2.108.656-5.513.926-7.927.326-1.197-.297-2.278-.633-3.293-1.076a12.922 12.922 0 0 1-1.586-.818l-.492-.299c.544.016 1.182.166 1.79.067.551-.089 1.091-.065 1.6-.176 1.267-.278 2.393-.646 3.361-1.214.47-.275 1.184-.597 1.518-.994-.629.011-1.2-.135-1.667-.3-1.812-.64-2.867-1.817-3.554-3.584.549.061 2.131.204 2.501-.109-.691-.038-1.356-.438-1.831-.736-1.458-.912-2.646-2.442-2.638-4.796l.574.272c.367.155.739.237 1.175.327.185.038.554.146.766.067h-.028c-.282-.327-.741-.546-1.025-.899C1.714 7.038.838 5.25 1.391 3.118a6.489 6.489 0 0 1 .602-1.458l.028.013c.109.228.352.396.506.587.478.592 1.067 1.124 1.667 1.594 2.046 1.6 3.888 2.583 6.847 3.311.751.186 1.618.326 2.515.327-.252-.733-.171-1.92.027-2.629.499-1.786 1.582-3.071 3.171-3.761A6.85 6.85 0 0 1 17.998.72l.684-.081z"/></symbol></defs></svg>