<svg aria-hidden="true" style="position: absolute; width: 0; height: 0; overflow: hidden;" version="1.1" xmlns="http://www.w3.org/2000/svg" xmlns:xlink="http://www.w3.org/1999/xlink">
<defs>
<symbol id="icon-facebook" viewBox="0 0 16 32">
<title>icon-facebook</title>
<path d="M11.053 0.182c0 1.349 0 3.768 0 3.768s-2.777-0.277-3.472 0.787c-0.38 0.582-0.154 2.286-0.188 3.509 1.212 0 2.471 0 3.684 0-0.311 1.43-0.534 2.399-0.763 3.637-1.049 0-2.94 0-2.94 0v11.707c0 0-3.472 0-5.104 0 0.001-3.609-0.001-7.819 0-11.661-0.793 0-1.379 0-2.171 0 0-1.35 0-2.332 0-3.683 0.769 0 1.378 0 2.148 0 0.11-2.694 0.151-5.361 1.489-6.72 1.503-1.528 2.938-1.344 7.319-1.344z"></path>
</symbol>
<symbol id="icon-instagram" viewBox="0 0 32 32">
<title>icon-instagram</title>
<path d="M20.882 23.734h-17.663c-1.625 0-2.944-1.318-2.944-2.945v-17.662c0-1.626 1.318-2.945 2.944-2.945h17.663c1.625 0 2.944 1.318 2.944 2.945v17.662c0 1.626-1.318 2.945-2.944 2.945zM12.051 7.395c-1.836 0-3.414 1.087-4.138 2.649h-0.005c-0.007 0.017-0.013 0.034-0.020 0.051-0.043 0.097-0.081 0.196-0.118 0.295-0.017 0.049-0.037 0.096-0.052 0.143-0.034 0.103-0.062 0.207-0.087 0.313-0.013 0.049-0.028 0.098-0.039 0.147-0.024 0.111-0.040 0.224-0.056 0.339-0.006 0.046-0.016 0.091-0.021 0.138-0.017 0.16-0.027 0.323-0.027 0.488 0 2.52 2.043 4.562 4.563 4.562s4.563-2.042 4.563-4.562c0-0.166-0.010-0.328-0.027-0.488-0.006-0.047-0.015-0.092-0.021-0.138-0.016-0.114-0.032-0.227-0.056-0.339-0.011-0.050-0.026-0.098-0.039-0.147-0.026-0.106-0.053-0.21-0.087-0.313-0.016-0.048-0.035-0.095-0.052-0.143-0.037-0.099-0.075-0.199-0.118-0.295-0.007-0.017-0.013-0.034-0.020-0.051h-0.005c-0.724-1.562-2.302-2.649-4.138-2.649zM21.177 4.010c0-0.65-0.527-1.177-1.177-1.177h-2.355c-0.65 0-1.177 0.526-1.177 1.177v2.356c0 0.65 0.527 1.178 1.177 1.178h2.355c0.65 0 1.177-0.527 1.177-1.178v-2.356zM21.177 10.045h-2.171c0.167 0.61 0.258 1.252 0.258 1.914 0 3.983-3.229 7.211-7.212 7.211s-7.212-3.228-7.212-7.211c0-0.662 0.090-1.304 0.258-1.914h-2.171v9.862c0 0.651 0.527 1.178 1.177 1.178h15.896c0.65 0 1.177-0.527 1.177-1.178v-9.862z"></path>
</symbol>
<symbol id="icon-pinterest" viewBox="0 0 26 32">
<title>icon-pinterest</title>
<path d="M8.275 15.409c-0.191 0.762-0.384 1.56-0.583 2.341-0.197 0.77-0.37 1.551-0.656 2.258-0.474 1.171-1.077 2.303-1.868 3.219-0.526 0.61-0.414 0.367-0.572 0.334-0.121-0.026-0.131-0.144-0.154-0.315-0.129-0.931-0.041-2.007 0.006-3.053 0.055-1.192 0.305-2.183 0.538-3.174 0.442-1.887 0.865-3.737 1.312-5.636 0.029-0.126 0.11-0.335 0.082-0.407-0.203-0.528-0.335-1.001-0.392-1.555-0.067-0.635-0.016-1.229 0.127-1.776 0.253-0.967 0.835-1.824 1.732-2.138 0.57-0.197 1.202-0.108 1.586 0.121 0.395 0.237 0.666 0.61 0.793 1.139 0.135 0.562 0.036 1.235-0.073 1.729-0.244 1.114-0.565 1.951-0.857 3.026-0.144 0.533-0.308 1.081-0.173 1.657 0.124 0.528 0.4 0.892 0.774 1.166 0.389 0.283 0.85 0.438 1.486 0.416 1.123-0.039 1.903-0.757 2.424-1.434 0.835-1.083 1.339-2.545 1.531-4.284 0.061-0.561 0.107-1.206 0.064-1.841-0.080-1.174-0.447-2.118-1.030-2.85-0.554-0.698-1.34-1.252-2.297-1.564-0.948-0.309-2.26-0.412-3.426-0.213-2.119 0.363-3.613 1.567-4.494 3.23-0.461 0.87-0.765 1.872-0.765 3.118 0 0.961 0.237 1.705 0.62 2.286 0.122 0.184 0.3 0.336 0.419 0.546 0.169 0.298-0.026 0.742-0.109 1.064-0.101 0.389-0.112 0.925-0.565 0.934-0.188 0.004-0.424-0.133-0.583-0.222-1.193-0.659-1.917-1.859-2.214-3.414-0.181-0.945-0.18-2.047 0-2.96 0.174-0.884 0.497-1.699 0.857-2.36 0.744-1.374 1.835-2.473 3.163-3.258 1.020-0.603 2.171-1.027 3.572-1.231 0.464-0.068 0.945-0.096 1.467-0.121 1.525-0.071 2.911 0.274 3.955 0.741 1.102 0.493 1.981 1.148 2.725 1.962 0.766 0.837 1.324 1.809 1.677 3.025 0.185 0.633 0.364 1.309 0.364 2.091 0 0.784-0.166 1.475-0.282 2.165-0.433 2.586-1.663 4.7-3.509 5.904-0.447 0.291-0.988 0.56-1.604 0.74-0.61 0.177-1.306 0.311-2.051 0.259-0.723-0.049-1.316-0.246-1.813-0.528-0.494-0.279-0.909-0.621-1.203-1.137z"></path>
</symbol>
<symbol id="icon-twitter" viewBox="0 0 37 32">
<title>icon-twitter</title>
<path d="M18.681 0.641c2.17-0.038 3.325 0.752 4.428 1.757 0.937-0.080 2.154-0.603 2.87-0.967 0.231-0.126 0.464-0.254 0.697-0.381-0.41 1.106-0.964 1.972-1.818 2.63-0.19 0.145-0.378 0.342-0.615 0.435 0 0.004 0 0.010 0 0.014 1.216-0.012 2.219-0.561 3.171-0.859 0 0.004 0 0.010 0 0.014-0.5 0.795-1.178 1.602-1.9 2.18-0.291 0.231-0.583 0.463-0.875 0.694 0.016 1.287-0.019 2.516-0.259 3.598-1.399 6.288-5.107 10.557-10.975 12.386-2.108 0.656-5.513 0.926-7.927 0.326-1.197-0.297-2.278-0.633-3.293-1.076-0.564-0.246-1.087-0.513-1.586-0.818-0.164-0.099-0.327-0.199-0.492-0.299 0.544 0.016 1.182 0.166 1.79 0.067 0.551-0.089 1.091-0.065 1.6-0.176 1.267-0.278 2.393-0.646 3.361-1.214 0.47-0.275 1.184-0.597 1.518-0.994-0.629 0.011-1.2-0.135-1.667-0.3-1.812-0.64-2.867-1.817-3.554-3.584 0.549 0.061 2.131 0.204 2.501-0.109-0.691-0.038-1.356-0.438-1.831-0.736-1.458-0.912-2.646-2.442-2.638-4.796 0.192 0.091 0.383 0.181 0.574 0.272 0.367 0.155 0.739 0.237 1.175 0.327 0.185 0.038 0.554 0.146 0.766 0.067-0.010 0-0.018 0-0.028 0-0.282-0.327-0.741-0.546-1.025-0.899-0.935-1.162-1.811-2.95-1.258-5.082 0.141-0.541 0.364-1.018 0.602-1.458 0.010 0.004 0.018 0.009 0.028 0.013 0.109 0.228 0.352 0.396 0.506 0.587 0.478 0.592 1.067 1.124 1.667 1.594 2.046 1.6 3.888 2.583 6.847 3.311 0.751 0.186 1.618 0.326 2.515 0.327-0.252-0.733-0.171-1.92 0.027-2.629 0.499-1.786 1.582-3.071 3.171-3.761 0.38-0.164 0.801-0.285 1.244-0.382 0.228-0.027 0.455-0.054 0.684-0.081z"></path>
</symbol>
</defs>
</svg>
